<?xml version="1.0" encoding="UTF-8" standalone="no"?>
<!DOCTYPE svg PUBLIC "-//W3C//DTD SVG 20010904//EN"
              "http://www.w3.org/TR/2001/REC-SVG-20010904/DTD/svg10.dtd">

<svg xmlns="http://www.w3.org/2000/svg"
     width="90.3158mm" height="90.3158mm"
     viewBox="0 0 512 512">
     <g id="compass">
  <path id="Selection"
        fill="black" stroke="black" stroke-width="1"
        d="M 225.97,0.00
           C 225.97,0.00 235.39,0.00 235.39,0.00
             235.39,0.00 236.98,0.21 236.98,0.21
             236.98,0.21 238.50,2.48 238.50,2.48
             238.50,2.48 241.73,8.07 241.73,8.07
             241.73,8.07 251.62,25.26 251.62,25.26
             251.62,25.26 256.94,34.37 256.94,34.37
             256.94,34.37 256.94,0.00 256.94,0.00
             256.94,0.00 266.78,0.00 266.78,0.00
             266.78,0.00 266.78,37.89 266.78,37.89
             266.78,37.89 266.78,48.03 266.78,48.03
             266.75,49.58 266.30,49.48 264.89,49.48
             264.89,49.48 257.57,49.48 257.57,49.48
             255.84,49.45 255.73,48.57 254.94,47.20
             254.94,47.20 251.32,40.99 251.32,40.99
             251.32,40.99 241.64,24.22 241.64,24.22
             241.64,24.22 235.81,14.29 235.81,14.29
             235.81,14.29 235.81,41.20 235.81,41.20
             235.81,41.20 235.81,47.62 235.81,47.62
             235.81,47.62 235.59,49.15 235.59,49.15
             235.59,49.15 233.93,49.48 233.93,49.48
             233.93,49.48 225.97,49.48 225.97,49.48
             225.97,49.48 225.97,0.00 225.97,0.00 Z
           M 244.44,53.64
           C 245.59,53.35 245.64,55.06 245.80,55.90
             245.80,55.90 246.48,63.56 246.48,63.56
             246.48,63.56 246.48,65.42 246.48,65.42
             246.48,65.42 248.59,96.48 248.59,96.48
             248.59,96.48 253.18,163.56 253.18,163.56
             253.18,163.56 253.18,165.42 253.18,165.42
             253.18,165.42 254.45,184.05 254.45,184.05
             254.45,184.05 255.50,199.79 255.50,199.79
             255.50,199.79 255.89,205.17 255.89,205.17
             255.89,205.17 257.36,218.22 257.36,218.22
             257.44,225.17 255.58,230.53 249.62,234.69
             248.50,235.47 247.29,236.09 246.06,236.69
             245.58,236.93 244.94,237.31 244.39,237.25
             243.51,237.14 240.56,234.85 239.78,234.21
             235.38,230.57 232.68,225.39 232.67,219.67
             232.67,219.67 232.67,215.52 232.67,215.52
             232.67,215.52 233.05,210.97 233.05,210.97
             233.05,210.97 233.33,206.83 233.33,206.83
             233.33,206.83 233.70,203.10 233.70,203.10
             233.70,203.10 235.79,175.36 235.79,175.36
             235.79,175.36 241.25,94.82 241.25,94.82
             241.25,94.82 241.25,92.96 241.25,92.96
             241.25,92.96 242.07,81.99 242.07,81.99
             242.07,81.99 242.31,77.02 242.31,77.02
             242.31,77.02 242.94,67.49 242.94,67.49
             242.94,67.49 243.13,65.42 243.13,65.42
             243.13,65.42 243.32,62.94 243.32,62.94
             243.32,62.94 243.72,56.93 243.72,56.93
             243.83,55.83 243.62,54.49 244.44,53.64 Z
           M 94.57,243.89
           C 94.57,243.89 94.78,237.88 94.78,237.88
             94.78,237.88 94.97,235.81 94.97,235.81
             95.50,228.32 96.73,220.95 98.58,213.66
             109.19,171.67 139.34,136.39 178.27,117.13
             191.53,110.57 205.84,105.97 220.53,103.88
             220.53,103.88 229.74,102.88 229.74,102.88
             229.74,102.88 231.83,102.69 231.83,102.69
             231.83,102.69 236.02,102.48 236.02,102.48
             236.02,102.48 237.27,102.48 237.27,102.48
             237.27,102.48 236.85,110.35 236.85,110.35
             236.85,110.35 236.65,113.46 236.65,113.46
             236.65,113.46 236.44,116.56 236.44,116.56
             236.44,116.56 236.19,121.32 236.19,121.32
             236.19,121.32 235.82,125.26 235.82,125.26
             235.73,126.93 235.73,129.81 234.53,131.03
             232.21,133.41 227.87,133.58 224.72,134.20
             218.09,135.50 212.09,137.08 205.68,139.20
             189.70,144.47 175.55,152.58 163.20,163.95
             163.20,163.95 159.65,167.29 159.65,167.29
             145.92,181.49 137.34,196.78 130.57,215.11
             128.54,220.62 127.92,224.56 126.89,230.22
             126.45,232.60 125.91,237.02 124.54,238.92
             124.01,239.66 121.93,241.81 121.15,242.16
             120.50,242.44 119.79,242.22 119.06,242.29
             119.06,242.29 113.41,242.65 113.41,242.65
             113.41,242.65 108.80,243.04 108.80,243.04
             108.80,243.04 100.85,243.49 100.85,243.49
             100.85,243.49 94.57,243.89 94.57,243.89 Z
           M 252.34,102.69
           C 252.34,102.69 255.06,102.89 255.06,102.89
             255.06,102.89 257.57,102.89 257.57,102.89
             257.57,102.89 259.66,103.09 259.66,103.09
             267.52,103.62 275.23,104.76 282.89,106.65
             330.93,118.53 370.62,154.99 387.23,201.03
             390.41,209.84 392.70,218.90 394.05,228.15
             394.05,228.15 395.06,237.26 395.06,237.26
             395.06,237.26 395.25,239.33 395.25,239.33
             395.25,239.33 395.46,243.06 395.46,243.06
             395.46,243.06 395.46,243.89 395.46,243.89
             395.46,243.89 392.11,243.68 392.11,243.68
             392.11,243.68 388.76,243.47 388.76,243.47
             388.76,243.47 385.62,243.27 385.62,243.27
             385.62,243.27 376.00,242.66 376.00,242.66
             376.00,242.66 371.18,242.25 371.18,242.25
             369.92,242.13 368.49,242.12 367.44,241.36
             364.61,239.33 364.30,236.00 363.77,232.92
             363.01,228.38 361.91,223.67 360.63,219.25
             356.52,204.97 349.36,190.60 340.13,178.88
             325.22,159.95 305.87,146.18 282.89,138.51
             272.07,134.90 265.19,134.30 254.43,132.30
             254.43,132.30 253.99,126.08 253.99,126.08
             253.99,126.08 253.37,116.98 253.37,116.98
             253.37,116.98 252.74,107.87 252.74,107.87
             252.74,107.87 252.34,102.69 252.34,102.69 Z
           M 0.00,224.01
           C 0.00,224.01 36.83,224.01 36.83,224.01
             36.83,224.01 36.83,232.71 36.83,232.71
             36.83,232.71 10.25,232.71 10.25,232.71
             10.25,232.71 10.25,243.06 10.25,243.06
             10.25,243.06 34.52,243.06 34.52,243.06
             34.52,243.06 34.52,251.76 34.52,251.76
             34.52,251.76 10.25,251.76 10.25,251.76
             10.25,251.76 10.25,264.59 10.25,264.59
             10.25,264.59 37.87,264.59 37.87,264.59
             37.87,264.59 37.87,273.29 37.87,273.29
             37.87,273.29 0.00,273.29 0.00,273.29
             0.00,273.29 0.00,224.01 0.00,224.01 Z
           M 448.39,227.33
           C 448.39,227.33 459.69,227.33 459.69,227.33
             459.69,227.33 464.00,245.96 464.00,245.96
             464.00,245.96 466.47,257.35 466.47,257.35
             466.47,257.35 467.64,263.35 467.64,263.35
             467.64,263.35 472.16,239.33 472.16,239.33
             472.16,239.33 474.55,227.33 474.55,227.33
             474.55,227.33 483.96,227.33 483.96,227.33
             483.96,227.33 485.64,227.66 485.64,227.66
             485.64,227.66 486.35,230.22 486.35,230.22
             486.35,230.22 487.56,235.81 487.56,235.81
             487.56,235.81 491.41,254.03 491.41,254.03
             491.41,254.03 492.49,259.62 492.49,259.62
             492.49,259.62 493.38,263.35 493.38,263.35
             493.38,263.35 495.17,254.03 495.17,254.03
             495.17,254.03 499.37,235.81 499.37,235.81
             499.37,235.81 501.33,227.33 501.33,227.33
             501.33,227.33 512.00,227.33 512.00,227.33
             512.00,227.33 508.32,240.37 508.32,240.37
             508.32,240.37 501.45,264.59 501.45,264.59
             501.45,264.59 499.15,272.67 499.15,272.67
             499.15,272.67 497.98,276.81 497.98,276.81
             497.98,276.81 489.61,276.81 489.61,276.81
             489.61,276.81 487.97,276.48 487.97,276.48
             487.97,276.48 487.31,273.91 487.31,273.91
             487.31,273.91 486.03,267.90 486.03,267.90
             486.03,267.90 482.00,248.24 482.00,248.24
             482.00,248.24 479.99,238.30 479.99,238.30
             479.99,238.30 478.02,249.69 478.02,249.69
             478.02,249.69 474.22,267.90 474.22,267.90
             474.22,267.90 472.87,274.32 472.87,274.32
             472.44,276.46 472.54,276.78 470.99,276.81
             470.99,276.81 464.29,276.81 464.29,276.81
             463.94,276.81 463.22,276.84 462.92,276.69
             462.28,276.38 461.89,274.39 461.70,273.70
             461.70,273.70 459.27,265.21 459.27,265.21
             459.27,265.21 451.62,238.51 451.62,238.51
             451.62,238.51 448.39,227.33 448.39,227.33 Z
           M 44.78,250.51
           C 44.78,250.51 46.66,250.32 46.66,250.32
             46.66,250.32 58.17,249.50 58.17,249.50
             58.17,249.50 82.65,247.84 82.65,247.84
             82.65,247.84 108.17,246.17 108.17,246.17
             108.17,246.17 110.06,246.17 110.06,246.17
             110.06,246.17 163.20,242.63 163.20,242.63
             163.20,242.63 194.17,240.35 194.17,240.35
             194.17,240.35 198.15,239.97 198.15,239.97
             198.15,239.97 204.63,239.51 204.63,239.51
             204.63,239.51 209.24,239.13 209.24,239.13
             216.45,239.04 222.68,240.44 227.56,246.17
             228.50,247.27 229.32,248.46 230.09,249.69
             230.40,250.17 230.83,250.74 230.77,251.34
             230.68,252.26 228.46,255.29 227.81,256.10
             224.03,260.86 218.02,263.34 211.96,263.35
             211.96,263.35 208.40,263.35 208.40,263.35
             208.40,263.35 203.80,262.97 203.80,262.97
             203.80,262.97 198.36,262.56 198.36,262.56
             198.36,262.56 191.45,262.09 191.45,262.09
             191.45,262.09 178.69,261.09 178.69,261.09
             178.69,261.09 133.70,257.99 133.70,257.99
             133.70,257.99 114.66,256.72 114.66,256.72
             114.66,256.72 112.78,256.72 112.78,256.72
             112.78,256.72 95.41,255.48 95.41,255.48
             95.41,255.48 93.53,255.48 93.53,255.48
             93.53,255.48 87.25,255.05 87.25,255.05
             87.25,255.05 85.37,254.86 85.37,254.86
             85.37,254.86 79.30,254.47 79.30,254.47
             79.30,254.47 74.28,254.22 74.28,254.22
             74.28,254.22 66.54,253.64 66.54,253.64
             66.54,253.64 57.12,253.03 57.12,253.03
             57.12,253.03 54.40,252.88 54.40,252.88
             54.40,252.88 48.12,252.46 48.12,252.46
             47.53,252.39 46.76,252.40 46.24,252.13
             45.51,251.77 45.15,251.20 44.78,250.51 Z
           M 444.84,251.96
           C 443.78,252.26 440.65,252.31 439.40,252.40
             439.40,252.40 427.26,253.22 427.26,253.22
             427.26,253.22 393.99,255.46 393.99,255.46
             393.99,255.46 385.41,255.91 385.41,255.91
             385.41,255.91 315.32,260.47 315.32,260.47
             315.32,260.47 290.42,262.33 290.42,262.33
             290.42,262.33 282.47,262.95 282.47,262.95
             282.47,262.95 280.38,263.14 280.38,263.14
             273.11,263.23 266.97,262.29 262.13,256.31
             261.25,255.22 260.48,254.02 259.82,252.79
             259.54,252.25 259.12,251.55 259.21,250.93
             259.36,249.93 261.68,246.80 262.41,245.96
             266.14,241.67 271.53,239.34 277.24,239.33
             277.24,239.33 282.26,239.33 282.26,239.33
             282.26,239.33 287.07,239.73 287.07,239.73
             287.07,239.73 297.95,240.56 297.95,240.56
             297.95,240.56 329.76,242.83 329.76,242.83
             329.76,242.83 379.55,246.15 379.55,246.15
             379.55,246.15 384.58,246.39 384.58,246.39
             384.58,246.39 395.46,247.18 395.46,247.18
             395.46,247.18 404.87,247.81 404.87,247.81
             404.87,247.81 406.96,247.81 406.96,247.81
             406.96,247.81 414.71,248.44 414.71,248.44
             414.71,248.44 416.59,248.44 416.59,248.44
             416.59,248.44 433.75,249.67 433.75,249.67
             433.75,249.67 439.81,250.06 439.81,250.06
             442.08,250.28 443.21,249.83 444.84,251.96 Z
           M 94.37,258.79
           C 94.37,258.79 105.66,259.42 105.66,259.42
             105.66,259.42 111.94,259.83 111.94,259.83
             111.94,259.83 114.66,260.04 114.66,260.04
             114.66,260.04 116.54,260.04 116.54,260.04
             116.54,260.04 122.19,260.45 122.19,260.45
             122.19,260.45 124.42,266.87 124.42,266.87
             124.42,266.87 128.47,278.67 128.47,278.67
             132.69,291.18 137.18,303.48 143.96,314.90
             154.52,332.69 168.77,345.84 187.06,355.62
             196.24,360.54 206.12,363.82 216.14,366.57
             216.14,366.57 226.18,368.96 226.18,368.96
             228.32,369.50 230.68,370.12 232.45,371.46
             234.63,373.10 235.12,375.53 235.55,378.05
             235.55,378.05 236.89,392.75 236.89,392.75
             236.89,392.75 237.32,397.72 237.32,397.72
             237.30,398.16 237.51,399.16 237.32,399.51
             237.07,400.15 235.22,399.79 234.55,399.79
             234.55,399.79 232.25,399.79 232.25,399.79
             232.25,399.79 230.16,399.60 230.16,399.60
             230.16,399.60 220.12,398.57 220.12,398.57
             205.57,396.57 191.39,392.04 178.27,385.55
             142.48,367.85 114.95,337.22 101.83,299.79
             97.44,287.27 94.37,272.05 94.37,258.79 Z
           M 364.91,260.66
           C 364.91,260.66 374.32,260.06 374.32,260.06
             374.32,260.06 388.76,259.19 388.76,259.19
             388.76,259.19 395.04,258.79 395.04,258.79
             395.04,258.79 395.04,263.14 395.04,263.14
             395.04,263.14 394.84,265.83 394.84,265.83
             394.40,275.86 392.37,285.86 389.39,295.44
             379.77,326.40 359.29,354.17 332.68,372.99
             318.47,383.05 303.44,390.17 286.65,394.90
             276.71,397.71 262.64,400.20 252.34,400.20
             252.34,400.20 252.74,394.61 252.74,394.61
             252.74,394.61 253.37,385.29 253.37,385.29
             253.37,385.29 253.99,376.18 253.99,376.18
             253.99,376.18 254.43,369.97 254.43,369.97
             254.43,369.97 262.80,368.95 262.80,368.95
             268.95,367.95 274.20,366.72 280.17,364.95
             306.68,357.08 329.79,339.49 345.10,316.77
             348.10,312.32 351.29,306.92 353.54,302.07
             358.43,291.54 361.60,281.38 363.60,269.97
             363.60,269.97 364.91,260.66 364.91,260.66 Z
           M 244.18,449.89
           C 244.18,449.89 241.86,416.56 241.86,416.56
             241.86,416.56 238.13,363.97 238.13,363.97
             238.13,363.97 236.45,338.71 236.45,338.71
             236.45,338.71 236.21,333.53 236.21,333.53
             236.21,333.53 233.91,298.75 233.91,298.75
             233.91,298.75 233.32,291.71 233.32,291.71
             233.32,291.71 233.05,287.57 233.05,287.57
             233.05,287.57 232.65,282.81 232.65,282.81
             232.65,282.81 232.46,280.74 232.46,280.74
             232.39,274.65 235.20,271.74 239.78,268.11
             241.40,266.83 242.80,265.16 245.02,265.48
             246.79,265.74 248.66,267.03 250.04,268.11
             254.45,271.59 257.01,277.48 256.94,283.02
             256.94,283.02 256.75,285.09 256.75,285.09
             256.75,285.09 256.33,291.30 256.33,291.30
             256.33,291.30 255.29,306.83 255.29,306.83
             255.29,306.83 254.83,314.90 254.83,314.90
             254.83,314.90 250.86,374.11 250.86,374.11
             250.86,374.11 249.18,398.96 249.18,398.96
             249.18,398.96 248.55,408.48 248.55,408.48
             248.55,408.48 248.36,410.55 248.36,410.55
             248.36,410.55 248.17,413.04 248.17,413.04
             248.17,413.04 247.54,422.35 247.54,422.35
             247.54,422.35 246.28,440.78 246.28,440.78
             246.28,440.78 246.28,442.64 246.28,442.64
             246.28,442.64 245.73,447.40 245.73,447.40
             245.53,448.76 245.78,449.76 244.18,449.89 Z
           M 227.23,495.44
           C 227.23,495.44 235.39,495.44 235.39,495.44
             235.81,495.44 236.60,495.39 236.94,495.65
             237.30,495.93 237.42,497.21 237.57,497.71
             237.91,498.81 238.39,499.57 239.18,500.41
             241.44,502.82 244.92,503.58 248.15,503.51
             250.74,503.45 254.02,502.96 256.10,501.33
             258.95,499.10 258.83,495.37 255.90,493.29
             254.31,492.16 251.53,491.56 249.62,491.11
             249.62,491.11 244.18,489.82 244.18,489.82
             238.31,488.45 230.81,487.07 228.70,480.53
             228.23,479.07 227.90,477.09 227.86,475.56
             227.83,474.39 228.07,472.56 228.35,471.42
             230.33,463.56 237.76,460.05 245.43,460.03
             245.43,460.03 248.57,460.03 248.57,460.03
             254.37,460.04 260.58,462.39 263.90,467.28
             264.66,468.39 265.37,469.94 265.80,471.21
             266.37,472.92 266.57,474.18 266.57,475.98
             266.57,475.98 256.52,475.98 256.52,475.98
             255.95,469.18 248.32,467.46 242.71,469.03
             239.56,469.90 236.56,472.69 238.00,476.18
             239.34,479.43 244.25,479.85 247.32,480.61
             247.32,480.61 254.22,482.32 254.22,482.32
             260.07,483.76 265.73,485.29 267.67,491.71
             267.99,492.75 268.23,494.35 268.24,495.44
             268.27,498.05 267.75,501.19 266.50,503.51
             263.33,509.40 255.61,511.99 249.20,512.00
             242.95,512.01 235.78,511.15 231.22,506.41
             228.22,503.28 227.23,499.63 227.23,495.44 Z" />
        </g>
</svg>
