<?xml version="1.0" encoding="UTF-8" standalone="no"?>
<!DOCTYPE svg PUBLIC "-//W3C//DTD SVG 20010904//EN"
              "http://www.w3.org/TR/2001/REC-SVG-20010904/DTD/svg10.dtd">

<svg xmlns="http://www.w3.org/2000/svg"
     width="90.3158mm" height="90.3158mm"
     viewBox="0 0 512 512">
   <g id="needle" transform-origin="center">
  <path id="needle"
        fill="red" stroke="red" stroke-width="1"
        d="M 244.00,54.00
           C 246.80,58.33 245.77,61.08 246.23,66.00
             246.23,66.00 248.23,94.00 248.23,94.00
             248.23,94.00 251.14,139.96 251.14,139.96
             251.14,139.96 254.68,191.47 254.68,191.47
             255.24,201.23 259.00,221.08 254.68,228.99
             253.57,230.81 252.50,232.12 250.90,233.47
             243.06,240.03 236.13,232.73 233.80,225.00
             232.87,221.92 232.96,218.23 233.01,215.01
             233.01,215.01 234.95,190.00 234.95,190.00
             234.95,190.00 237.86,148.00 237.86,148.00
             237.86,148.00 244.00,54.00 244.00,54.00 Z" />
   </g>
</svg>
